#!OML:ASF X:\für Bonn\!DataBase\2005_08_11_Bastian_Final\c3d\Bastian.ASF
:FULLY-SPECIFIED
:DEGREES
266
root 1.28122 17.3733 -3.28115 167.448 -17.9065 -177.551
lowerback 12.7638 -2.17261 0.324199
upperback 6.77162 -3.60788 0.897083
thorax -0.00645868 -2.14374 1.19681
lowerneck -2.61737 -8.40885 -2.01934
upperneck -9.64183 -11.3136 11.3769
head -1.81737 -6.16819 4.1072
rclavicle 1.78937e-014 2.5345e-015
rhumerus -218.291 -172.577 104.305
rradius 61.2877
rwrist -161.696
rhand -21.3418 1.46339
rfingers 7.12502
rthumb 5.04436 -28.4566
lclavicle 1.78937e-014 2.5345e-015
lhumerus -31.8817 31.5126 68.0829
lradius 29.5976
lwrist 194.794
lhand -21.6943 14.0645
lfingers 7.12502
lthumb 4.70399 43.9923
rfemur -10.2331 -8.83143 22.8758
rtibia 48.4103
rfoot -16.1612 -10.0454
rtoes -4.23447
lfemur 4.82089 1.67822 -17.2622
ltibia 27.7728
lfoot -14.3623 -1.57133
ltoes -0.896955
267
root 1.30223 17.3611 -3.21489 167.334 -18.1407 -177.515
lowerback 12.6199 -2.20716 0.368118
upperback 6.79375 -3.64831 0.910026
thorax 0.0930157 -2.16246 1.18156
lowerneck -2.64586 -8.43971 -2.00479
upperneck -9.54968 -11.3538 11.2729
head -1.78587 -6.17754 4.0614
rclavicle 7.29912e-015 -1.86361e-015
rhumerus -218.106 -173.011 103.897
rradius 61.7147
rwrist -161.603
rhand -21.1909 1.26121
rfingers 7.12502
rthumb 5.18999 -28.6552
lclavicle 7.29912e-015 -1.86361e-015
lhumerus -30.4847 29.8563 69.9276
lradius 30.3275
lwrist 198.401
lhand -21.9993 14.1554
lfingers 7.12502
lthumb 4.40945 44.0895
rfemur -9.22944 -8.95794 22.6227
rtibia 48.7381
rfoot -16.5868 -10.0891
rtoes -3.91403
lfemur 4.30424 1.5773 -17.2576
ltibia 28.4186
lfoot -14.3226 -1.68314
ltoes -0.956746
268
root 1.32438 17.3501 -3.14761 167.223 -18.3911 -177.446
lowerback 12.4964 -2.25294 0.435603
upperback 6.78962 -3.69762 0.941607
thorax 0.154014 -2.18388 1.17556
lowerneck -2.68394 -8.4678 -1.96775
upperneck -9.42697 -11.3906 11.1078
head -1.74789 -6.18156 3.98887
rclavicle -2.68297e-014 7.90169e-015
rhumerus -217.953 -173.436 103.541
rradius 62.1218
rwrist -161.551
rhand -21.0424 1.10002
rfingers 7.12502
rthumb 5.33337 -28.8129
lclavicle -2.68297e-014 7.90169e-015
lhumerus -29.1935 28.1328 71.6639
lradius 31.1121
lwrist 201.741
lhand -22.2138 14.229
lfingers 7.12502
lthumb 4.20234 44.1672
rfemur -8.16934 -9.0592 22.4128
rtibia 48.9472
rfoot -16.9907 -10.3827
rtoes -3.63434
lfemur 3.79762 1.48329 -17.2048
ltibia 28.9878
lfoot -14.2024 -1.83094
ltoes -0.712559
269
root 1.34781 17.3438 -3.08112 167.141 -18.6648 -177.409
lowerback 12.3456 -2.29572 0.469387
upperback 6.7892 -3.74632 0.958431
thorax 0.23452 -2.20522 1.17112
lowerneck -2.66328 -8.49503 -1.96716
upperneck -9.37384 -11.4233 11.0249
head -1.73668 -6.19019 3.95834
rclavicle 4.50868e-014 7.95139e-015
rhumerus -217.789 -173.83 103.199
rradius 62.513
rwrist -161.55
rhand -20.875 0.984081
rfingers 7.12502
rthumb 5.49507 -28.9247
lclavicle 4.50868e-014 7.95139e-015
lhumerus -27.9573 26.39 73.2922
lradius 31.9615
lwrist 204.737
lhand -22.3268 14.2975
lfingers 7.12502
lthumb 4.0932 44.2379
rfemur -7.07397 -9.07622 22.1902
rtibia 49.0465
rfoot -17.3596 -10.9424
rtoes -3.38358
lfemur 3.30213 1.56409 -17.1375
ltibia 29.4579
lfoot -13.9804 -2.12321
ltoes -0.872028
